<?xml version="1.0" standalone="no"?>
<!DOCTYPE svg PUBLIC "-//W3C//DTD SVG 20010904//EN"
 "http://www.w3.org/TR/2001/REC-SVG-20010904/DTD/svg10.dtd">
<svg version="1.0" xmlns="http://www.w3.org/2000/svg"
 width="300.000000pt" height="300.000000pt" viewBox="0 0 300.000000 300.000000"
 preserveAspectRatio="xMidYMid meet">

<g transform="translate(0.000000,300.000000) scale(0.100000,-0.100000)"
fill="#000000" stroke="none">
<path d="M1895 2025 c-21 -8 -48 -24 -58 -37 -34 -43 -67 -98 -67 -111 0 -10
-15 -15 -52 -15 -29 -1 -76 -10 -105 -20 -41 -16 -70 -19 -145 -16 -51 2 -98
6 -105 9 -18 6 -149 -12 -213 -30 -31 -8 -61 -24 -69 -35 -7 -11 -22 -20 -32
-20 -12 0 -19 -7 -19 -18 0 -20 -34 -55 -62 -65 -14 -5 -18 -17 -18 -50 0 -24
4 -47 8 -53 14 -15 36 -97 37 -139 1 -22 -4 -56 -11 -75 -18 -52 -28 -117 -26
-185 3 -105 4 -105 -88 -105 -87 0 -296 -47 -360 -81 -34 -18 -13 -18 985 -18
l1020 1 -61 28 c-36 17 -108 37 -180 50 -65 11 -141 27 -168 35 -27 8 -90 15
-140 15 -50 0 -97 4 -104 9 -30 19 -41 251 -11 251 5 0 27 11 50 25 27 18 41
35 46 56 3 19 16 35 33 44 15 8 32 27 37 42 27 75 46 158 47 203 1 21 5 25 28
22 42 -5 72 31 64 76 -4 21 -9 59 -12 86 -7 67 -28 103 -70 121 -45 19 -126
19 -179 0z m82 -100 c2 -11 0 -14 -3 -7 -9 20 -28 14 -56 -18 -26 -30 -60 -38
-87 -21 -21 13 -6 40 26 46 15 4 37 10 48 15 33 15 70 7 72 -15z m61 -41 c24
12 37 14 52 6 26 -14 50 -50 50 -76 0 -31 -25 -47 -78 -50 -47 -2 -48 -2 -65
39 -9 23 -17 55 -17 72 0 26 1 27 13 11 13 -17 15 -17 45 -2z m-355 -607 c29
-42 37 -65 43 -121 6 -63 6 -69 -10 -63 -10 4 -110 9 -224 12 l-206 5 -12 28
c-7 16 -9 55 -6 98 4 60 2 72 -12 77 -25 10 -79 -16 -99 -46 -20 -30 -14 -96
11 -135 8 -12 13 -24 11 -26 -2 -2 -33 -6 -68 -10 -59 -7 -63 -6 -56 11 4 10
17 47 29 82 14 42 35 78 63 108 l42 46 58 -7 c201 -23 313 -18 341 15 16 18
16 18 38 -2 12 -11 37 -43 57 -72z"/>
</g>
</svg>
